<svg xmlns="http://www.w3.org/2000/svg" viewBox="0 0 32 32" fill="none">
  <rect width="32" height="32" rx="10" fill="#0B0F1A"/>
  <g transform="translate(2 2)" fill="#fff">
    <path d="M15.3379 21.9623C15.362 19.479 14.7376 17.4595 13.9433 17.4517C13.1491 17.4439 12.4857 19.4507 12.4616 21.9339C12.4375 24.4172 13.0619 26.4367 13.8561 26.4445C14.6504 26.4524 15.3138 24.4456 15.3379 21.9623Z"/>
    <path d="M10.7345 21.3982C12.0864 19.3222 12.644 17.283 11.9801 16.8434C11.3161 16.4038 9.68197 17.7303 8.33014 19.8062C6.97828 21.8821 6.42065 23.9213 7.08459 24.361C7.74858 24.8006 9.38268 23.4741 10.7345 21.3982Z"/>
    <path d="M7.15449 18.4199C9.40485 17.4106 10.9674 15.9992 10.6446 15.2674C10.3218 14.5356 8.23582 14.7606 5.98546 15.7699C3.73511 16.7792 2.17254 18.1906 2.49536 18.9224C2.81818 19.6542 4.90414 19.4292 7.15449 18.4199Z"/>
    <path d="M10.3754 13.2147C10.4963 12.4232 8.62089 11.4752 6.18665 11.0974C3.75236 10.7196 1.68104 11.0551 1.56021 11.8467C1.43938 12.6382 3.31479 13.5862 5.74905 13.964C8.18331 14.3418 10.2546 14.0063 10.3754 13.2147Z"/>
    <path d="M11.2467 11.3296C11.7727 10.7295 10.7031 8.90984 8.85762 7.26525C7.01214 5.62066 5.08967 4.77396 4.56366 5.37408C4.03765 5.97421 5.1073 7.79391 6.95279 9.43849C8.79827 11.0831 10.7207 11.9298 11.2467 11.3296Z"/>
    <path d="M12.9928 10.2264C13.7571 10.0084 13.833 7.89441 13.1624 5.50483C12.4919 3.11524 11.3286 1.35487 10.5643 1.57295C9.80001 1.79102 9.72408 3.90494 10.3947 6.29456C11.0653 8.68414 12.2285 10.4445 12.9928 10.2264Z"/>
    <path d="M17.7209 6.37005C18.4382 3.99425 18.4036 1.87922 17.6437 1.64599C16.8838 1.41276 15.6864 3.14965 14.9692 5.52545C14.252 7.90123 14.2866 10.0163 15.0465 10.2495C15.8063 10.4827 17.0038 8.74582 17.7209 6.37005Z"/>
    <path d="M21.0965 9.57948C22.9736 7.97155 24.0783 6.17328 23.564 5.56293C23.0497 4.95255 21.1112 5.76123 19.2342 7.36908C17.3572 8.97696 16.2525 10.7753 16.7668 11.3856C17.281 11.996 19.2196 11.1874 21.0965 9.57948Z" fill-opacity=".9"/>
    <path d="M22.2088 14.1221C24.65 13.7928 26.5436 12.8823 26.4382 12.0884C26.3329 11.2946 24.2686 10.9181 21.8274 11.2473C19.3862 11.5766 17.4926 12.4871 17.5979 13.281C17.7033 14.0748 19.7676 14.4514 22.2088 14.1221Z" fill-opacity=".8"/>
    <path d="M25.3569 19.1498C25.694 18.4246 24.1594 16.9823 21.9292 15.9285C19.699 14.8746 17.6179 14.6082 17.2808 15.3334C16.9437 16.0587 18.4784 17.5009 20.7086 18.5548C22.9387 19.6086 25.0199 19.875 25.3569 19.1498Z"/>
    <path d="M20.6671 24.4995C21.3395 24.0732 20.8219 22.0232 19.5109 19.9209C18.1999 17.8185 16.592 16.4598 15.9196 16.8861C15.2472 17.3124 15.7648 19.3623 17.0758 21.4647C18.3868 23.5671 19.9947 24.9258 20.6671 24.4995Z"/>
  </g>
</svg>
